
        <svg xmlns="http://www.w3.org/2000/svg" xmlns:xlink="http://www.w3.org/1999/xlink" version="1.1" width="3168.5393258426966" 
        height="994.3820224719102" viewBox="0 0 3168.5393258426966 994.3820224719102">
			
			<g transform="scale(8.426966292134832) translate(10, 10)">
				<defs id="SvgjsDefs7391"><linearGradient id="SvgjsLinearGradient7398"><stop id="SvgjsStop7399" stop-color="#7d141d" offset="0"></stop><stop id="SvgjsStop7400" stop-color="#ff1e27" offset="1"></stop></linearGradient></defs><g id="SvgjsG7392" featureKey="monogramFeature-0" transform="matrix(2.1097045734355757,0,0,2.1097045734355757,-2.7848093931042186,-37.8481003693496)" fill="url(#SvgjsLinearGradient7398)"><path d="M29.52 57.66 l0.84 0 c3.18 0 4.5 -1.38 4.5 -4.62 l0 -10.68 l-19.8 0 l0 10.8 c0 3.18 1.26 4.5 4.62 4.5 l0.9 0 l0 2.34 l-19.26 0 l0 -2.34 l1.02 0 c3.06 0 4.44 -1.38 4.44 -4.38 l0 -23.88 c0 -3 -1.32 -4.38 -4.5 -4.38 l-0.96 0 l0 -2.34 l19.26 0 l0 2.34 l-0.84 0 c-3.12 0 -4.68 1.02 -4.68 4.38 l0 9.42 l19.8 0 l0 -9.24 c0 -3.36 -1.32 -4.56 -4.8 -4.56 l-0.54 0 l0 -2.34 l19.2 0 l0 2.34 l-1.08 0 c-3.06 0 -4.5 1.14 -4.5 4.38 l0 23.76 c0 3.12 1.14 4.5 4.62 4.5 l0.96 0 l0 2.34 l-19.2 0 l0 -2.34 z"></path></g><g id="SvgjsG7393" featureKey="textGroupContainer" transform="matrix(1,0,0,1,355,0)" fill="#0395fe"><rect xmlns="http://www.w3.org/2000/svg" y="0" height="1" width="1" opacity="0"></rect><rect xmlns="http://www.w3.org/2000/svg" y="0" x="-235" width="3" height="98"></rect></g><g id="SvgjsG7394" featureKey="nameFeature-0" transform="matrix(1.8148820829272285,0,0,1.8148820829272285,137.34664307323652,0.9709668298563265)" fill="#4e1184"><path d="M8 27.759999999999998 l0 8.2 c0 2.52 0.68 2.76 2.08 2.76 l0.4 0 l0 1.28 l-10.12 0 l0 -1.28 l0.56 0 c2.04 0 2.2 -0.8 2.2 -2.92 l0 -17.48 c0 -1.16 -0.2 -1.44 -1.28 -1.8 l-1.16 -0.4 l0 -0.92 l6.36 -1.96 l0.96 0 l0 13.04 c2.24 -1.56 5.12 -3.04 7.2 -3.04 c2.92 0 4.36 2.36 4.36 7.08 l0 5.28 c0 2.36 0.28 3.12 1.8 3.12 l0.4 0 l0 1.28 l-9.44 0 l0 -1.28 l0.32 0 c1.68 0 2.04 -0.64 2.04 -2.92 l0 -6.04 c0 -2.16 -1 -3.52 -2.6 -3.52 c-1.08 0 -2.68 0.6 -4.08 1.52 z M34.519999999999996 38.72 l0 1.28 l-11.12 0 l0 -1.28 l0.28 0 c1.64 0 2.24 -0.72 2.24 -2.8 l0 -6.52 c0 -1.8 -0.24 -2.2 -1.44 -2.68 l-1.08 -0.44 l0 -1 l6.56 -2.48 l0.84 0 l0 4.48 l0.08 0 c1.48 -2.88 2.12 -4.04 3.48 -4.04 c0.28 0 0.6 0.04 0.8 0.12 l3.16 1.16 c-0.48 1.68 -1.12 3.12 -1.92 4.24 c-1.24 -0.48 -2.72 -1 -3.24 -1 c-0.8 0 -1.48 0.56 -2.36 1.8 l0 6.48 c0 1.92 0.6 2.68 2.68 2.68 l1.04 0 z M39.56 40 l0 -1.28 l10.56 -12.84 l-5.56 0 c-1.56 0 -2.2 0.6 -3.44 3.4 l-1.32 0 l1.32 -6.72 l1.32 0 c-0.16 0.68 0.04 1.12 1.32 1.12 l13.36 0 l0 1.12 l-10.68 13 l5.16 0 c2.76 0 3.12 -0.44 5.08 -3.36 l1.24 0 l-1.88 5.56 l-16.48 0 z M69.36 38.72 l0 1.28 l-10 0 l0 -1.28 l0.44 0 c1.64 0 2.24 -0.72 2.24 -2.8 l0 -7.68 c0 -1.04 -0.24 -1.32 -1.36 -1.72 l-1.32 -0.48 l0 -0.96 l6.84 -2.28 l0.72 0 l0 13.4 c0 1.64 0.68 2.52 2.44 2.52 z M64.32000000000001 13.719999999999999 c1.84 0 3.16 1.2 3.16 2.72 c0 1.6 -1.52 2.72 -3.16 2.72 c-1.84 0 -3.2 -1.16 -3.2 -2.72 c0 -1.44 1.52 -2.72 3.2 -2.72 z M78.24 13.239999999999998 l0 22.68 c0 1.88 0.56 2.8 2.4 2.8 l0 1.28 l-9.92 0 l0 -1.28 l0.4 0 c1.68 0 2.24 -0.76 2.24 -2.8 l0 -16.48 c0 -1.76 -0.12 -2.08 -1.04 -2.4 l-1.72 -0.64 l0 -1.16 l6.92 -2 l0.72 0 z M89.08 13.239999999999998 l0 22.68 c0 1.88 0.56 2.8 2.4 2.8 l0 1.28 l-9.92 0 l0 -1.28 l0.4 0 c1.68 0 2.24 -0.76 2.24 -2.8 l0 -16.48 c0 -1.76 -0.12 -2.08 -1.04 -2.4 l-1.72 -0.64 l0 -1.16 l6.92 -2 l0.72 0 z M109.96000000000001 37.04 l0.6 0.96 c-1.24 1.36 -3.24 2.4 -4.56 2.4 c-1.48 0 -2.56 -0.96 -2.8 -2.48 c-1.6 1.56 -2.68 2.52 -4.92 2.52 c-2.84 0 -4.64 -1.64 -4.64 -4.2 c0 -1.28 0.56 -2.52 1.24 -3.2 c1.88 -1.88 5.12 -1.48 8.24 -4.04 l0 -1.48 c0 -1.56 -1.08 -2.68 -2.52 -2.68 c-1.4 0 -2.4 1 -2.08 3.08 l-4.48 1.56 c-0.36 -1.64 -0.2 -2.8 0.84 -3.84 c1.36 -1.36 4.64 -2.4 6.6 -2.4 s6.52 1.12 6.52 4.88 l0 7.56 c0 1.4 0.28 1.84 0.88 1.84 c0.32 0 0.52 -0.08 1.08 -0.48 z M103.12 36.52 l0 -5.72 c-1.92 1.68 -4.68 1.4 -4.68 4.64 c0 1.68 0.8 2.76 2 2.76 c0.68 0 1.52 -0.56 2.68 -1.68 z"></path></g>
			</g>
		</svg>
	